<svg width="19" height="20" viewBox="0 0 19 20" fill="none" xmlns="http://www.w3.org/2000/svg">
<path d="M16.9998 0H6.99979C5.89679 0 4.99979 0.897 4.99979 2V7.586L0.292787 12.293C0.152977 12.4329 0.057771 12.611 0.0192035 12.805C-0.0193641 12.9989 0.000438951 13.2 0.076109 13.3827C0.151779 13.5654 0.279918 13.7215 0.444328 13.8314C0.608738 13.9413 0.802037 14 0.999787 14V19C0.999787 19.2652 1.10514 19.5196 1.29268 19.7071C1.48022 19.8946 1.73457 20 1.99979 20H17.9998C18.265 20 18.5194 19.8946 18.7069 19.7071C18.8944 19.5196 18.9998 19.2652 18.9998 19V2C18.9998 0.897 18.1028 0 16.9998 0ZM8.99979 18H2.99979V12.414L5.99979 9.414L8.99979 12.414V18ZM16.9998 18H10.9998V14C11.1978 14.0004 11.3914 13.942 11.5561 13.8322C11.7208 13.7224 11.8492 13.5662 11.925 13.3833C12.0007 13.2004 12.0204 12.9991 11.9816 12.805C11.9427 12.6109 11.8471 12.4327 11.7068 12.293L6.99979 7.586V2H16.9998V18Z" fill="#375762"/>
</svg>
