<svg width="88" height="25" viewBox="0 0 88 25" fill="none" xmlns="http://www.w3.org/2000/svg">
<circle cx="43.5" cy="12.5" r="12.5" fill="#F0B6A7"/>
<path d="M47.042 17H45.8169L41.1641 9.87793V17H39.939V7.75781H41.1641L45.8296 14.9116V7.75781H47.042V17Z" fill="white"/>
<circle cx="43.5" cy="12.5" r="12.5" fill="#517E92"/>
<path d="M41.6909 13.3818V17H40.4722V7.75781H43.8809C44.8923 7.75781 45.6836 8.01595 46.2549 8.53223C46.8304 9.0485 47.1182 9.73193 47.1182 10.5825C47.1182 11.4797 46.8368 12.1715 46.2739 12.6582C45.7153 13.1406 44.9134 13.3818 43.8682 13.3818H41.6909ZM41.6909 12.3853H43.8809C44.5326 12.3853 45.0319 12.2329 45.3789 11.9282C45.7259 11.6193 45.8994 11.175 45.8994 10.5952C45.8994 10.0451 45.7259 9.60498 45.3789 9.2749C45.0319 8.94482 44.5558 8.77344 43.9507 8.76074H41.6909V12.3853Z" fill="white"/>
</svg>
